<svg width="62" height="62" viewBox="0 0 62 62" fill="none" xmlns="http://www.w3.org/2000/svg">
<path d="M16.1214 39.1731C16.4944 39.8191 17.1087 40.2904 17.8292 40.4835C18.5497 40.6765 19.3174 40.5755 19.9633 40.2025L39.2541 29.065L36.55 39.1565C36.3864 39.8667 36.5047 40.6126 36.8802 41.2372C37.2556 41.8617 37.8589 42.3162 38.5628 42.5048C39.2667 42.6934 40.0163 42.6015 40.6538 42.2483C41.2912 41.8951 41.7667 41.3083 41.98 40.6115L46.4409 23.963C46.6334 23.243 46.5322 22.476 46.1595 21.8306C45.7868 21.1851 45.1732 20.7139 44.4534 20.5206L27.805 16.0597C27.4438 15.9491 27.0641 15.9124 26.6885 15.9518C26.3129 15.9912 25.949 16.1058 25.6186 16.2888C25.2882 16.4719 24.9981 16.7196 24.7656 17.0172C24.533 17.3148 24.3628 17.6562 24.265 18.021C24.1673 18.3859 24.144 18.7666 24.1966 19.1406C24.2492 19.5147 24.3766 19.8742 24.5712 20.198C24.7658 20.5217 25.0236 20.8029 25.3292 21.0248C25.6348 21.2467 25.982 21.4048 26.35 21.4896L36.4416 24.1936L17.1508 35.3311C15.8063 36.1074 15.3451 37.8286 16.1214 39.1731Z" fill="currentColor"/>
</svg>
